<svg width="360" height="360" viewBox="0 0 360 360" fill="none" xmlns="http://www.w3.org/2000/svg">
<path d="M0 -50C0 -53.866 3.13401 -57 7 -57H372C375.866 -57 379 -53.866 379 -50V164.38C379 167.059 375.217 167.618 374.443 165.052C355.216 101.316 277.562 77.3382 225.748 119.138L175.082 160.013C125.591 195.577 61.5164 203.821 4.63549 181.943L0.313843 180.28C0.124765 180.208 0 180.026 0 179.823V-50Z" fill="#2F80ED"/>
<path d="M99.6622 -128.755C101.408 -132.204 105.442 -133.277 108.671 -131.151L483.323 115.522C486.552 117.648 487.754 122.168 486.008 125.617L390.715 313.842C389.306 316.623 385.337 314.941 385.744 311.736V311.736C395.157 237.545 339.301 168.908 271.017 170.756L184.812 173.09V173.09C117.135 171.065 51.7071 137.886 4.36817 81.5863L-2.2687 73.6931C-2.4778 73.4444 -2.52335 73.0834 -2.38109 72.8024L99.6622 -128.755Z" fill="#2F80ED" fill-opacity="0.5"/>
</svg>
